<svg width="12" height="20" viewBox="0 0 12 20" fill="none" xmlns="http://www.w3.org/2000/svg">
<path d="M9.86431 19.453L0.972626 10.7634C0.748089 10.5539 0.63582 10.2994 0.63582 10C0.63582 9.85779 0.665759 9.72307 0.725635 9.59583C0.785512 9.46111 0.867842 9.3451 0.972626 9.2478L9.86431 0.558204C10.0589 0.35612 10.3022 0.255078 10.5941 0.255078C10.7887 0.255078 10.9645 0.299986 11.1217 0.389801C11.2714 0.479616 11.3912 0.603111 11.481 0.760287C11.5708 0.909979 11.6157 1.08212 11.6157 1.27672C11.6157 1.57611 11.5184 1.81936 11.3238 2.00647L2.54439 10.6063L2.54439 9.40498L11.3238 18.0048C11.5184 18.1844 11.6157 18.4276 11.6157 18.7345C11.6157 18.9291 11.5708 19.105 11.481 19.2622C11.3912 19.4119 11.2714 19.5316 11.1217 19.6214C10.9645 19.7112 10.7887 19.7561 10.5941 19.7561C10.4518 19.7561 10.3171 19.73 10.1899 19.6776C10.0626 19.6252 9.95412 19.5503 9.86431 19.453Z" fill="#282828"/>
</svg>
