<svg width="122" height="122" viewBox="0 0 122 122" fill="none" xmlns="http://www.w3.org/2000/svg">
<g clip-path="url(#clip0_257_660)">
<path d="M60.5 44.5115C65.7102 44.5115 66.3272 44.5344 68.3762 44.6258C70.2805 44.7096 71.3088 45.0295 71.9943 45.2961C72.9008 45.6465 73.5559 46.073 74.2338 46.751C74.9193 47.4365 75.3383 48.084 75.6887 48.9904C75.9553 49.676 76.2752 50.7119 76.359 52.6086C76.4504 54.6652 76.4732 55.2822 76.4732 60.4848C76.4732 65.6949 76.4504 66.3119 76.359 68.3609C76.2752 70.2652 75.9553 71.2936 75.6887 71.9791C75.3383 72.8855 74.9117 73.5406 74.2338 74.2186C73.5482 74.9041 72.9008 75.323 71.9943 75.6734C71.3088 75.94 70.2729 76.26 68.3762 76.3437C66.3195 76.4352 65.7025 76.458 60.5 76.458C55.2898 76.458 54.6729 76.4352 52.6238 76.3437C50.7195 76.26 49.6912 75.94 49.0057 75.6734C48.0992 75.323 47.4441 74.8965 46.7662 74.2186C46.0807 73.533 45.6617 72.8855 45.3113 71.9791C45.0447 71.2936 44.7248 70.2576 44.641 68.3609C44.5496 66.3043 44.5268 65.6873 44.5268 60.4848C44.5268 55.2746 44.5496 54.6576 44.641 52.6086C44.7248 50.7043 45.0447 49.676 45.3113 48.9904C45.6617 48.084 46.0883 47.4289 46.7662 46.751C47.4518 46.0654 48.0992 45.6465 49.0057 45.2961C49.6912 45.0295 50.7271 44.7096 52.6238 44.6258C54.6729 44.5344 55.2898 44.5115 60.5 44.5115ZM60.5 41C55.2061 41 54.5434 41.0229 52.4639 41.1143C50.392 41.2057 48.9676 41.5408 47.7336 42.0207C46.4463 42.5234 45.357 43.1861 44.2754 44.2754C43.1861 45.357 42.5234 46.4463 42.0207 47.726C41.5408 48.9676 41.2057 50.3844 41.1143 52.4562C41.0229 54.5434 41 55.2061 41 60.5C41 65.7939 41.0229 66.4566 41.1143 68.5361C41.2057 70.608 41.5408 72.0324 42.0207 73.2664C42.5234 74.5537 43.1861 75.643 44.2754 76.7246C45.357 77.8062 46.4463 78.4766 47.726 78.9717C48.9676 79.4516 50.3844 79.7867 52.4563 79.8781C54.5357 79.9695 55.1984 79.9924 60.4924 79.9924C65.7863 79.9924 66.449 79.9695 68.5285 79.8781C70.6004 79.7867 72.0248 79.4516 73.2588 78.9717C74.5385 78.4766 75.6277 77.8062 76.7094 76.7246C77.791 75.643 78.4613 74.5537 78.9564 73.274C79.4363 72.0324 79.7715 70.6156 79.8629 68.5437C79.9543 66.4643 79.9771 65.8016 79.9771 60.5076C79.9771 55.2137 79.9543 54.551 79.8629 52.4715C79.7715 50.3996 79.4363 48.9752 78.9564 47.7412C78.4766 46.4463 77.8139 45.357 76.7246 44.2754C75.643 43.1937 74.5537 42.5234 73.274 42.0283C72.0324 41.5484 70.6156 41.2133 68.5438 41.1219C66.4566 41.0229 65.7939 41 60.5 41Z" fill="#F9F9F9"/>
<path d="M60.5003 50.4839C54.9703 50.4839 50.4837 54.9704 50.4837 60.5005C50.4837 66.0306 54.9703 70.5171 60.5003 70.5171C66.0304 70.5171 70.5169 66.0306 70.5169 60.5005C70.5169 54.9704 66.0304 50.4839 60.5003 50.4839ZM60.5003 66.9979C56.9126 66.9979 54.0029 64.0882 54.0029 60.5005C54.0029 56.9128 56.9126 54.003 60.5003 54.003C64.088 54.003 66.9978 56.9128 66.9978 60.5005C66.9978 64.0882 64.088 66.9979 60.5003 66.9979Z" fill="#F9F9F9"/>
<path d="M73.2512 50.087C73.2512 51.3819 72.2 52.4255 70.9127 52.4255C69.6178 52.4255 68.5742 51.3743 68.5742 50.087C68.5742 48.7921 69.6254 47.7485 70.9127 47.7485C72.2 47.7485 73.2512 48.7997 73.2512 50.087Z" fill="#F9F9F9"/>
</g>
<circle cx="61" cy="61" r="60" stroke="#F9F9F9" stroke-width="2"/>
<defs>
<clipPath id="clip0_257_660">
<rect width="39" height="39" fill="white" transform="translate(41 41)"/>
</clipPath>
</defs>
</svg>
