<svg width="23" height="33" viewBox="0 0 23 33" fill="none" xmlns="http://www.w3.org/2000/svg">
<path d="M13.8125 0.601562H9.1875C6.81173 0.60424 4.53404 1.5492 2.85412 3.22912C1.1742 4.90904 0.22924 7.18673 0.226562 9.5625V23.4375C0.22924 25.8133 1.1742 28.091 2.85412 29.7709C4.53404 31.4508 6.81173 32.3958 9.1875 32.3984H13.8125C16.1883 32.3958 18.466 31.4508 20.1459 29.7709C21.8258 28.091 22.7708 25.8133 22.7734 23.4375V9.5625C22.7708 7.18673 21.8258 4.90904 20.1459 3.22912C18.466 1.5492 16.1883 0.60424 13.8125 0.601562ZM21.0391 9.5625V13.3203H12.3672V2.33594H13.8125C15.7284 2.33823 17.5652 3.10034 18.9199 4.45508C20.2747 5.80983 21.0368 7.6466 21.0391 9.5625ZM9.1875 2.33594H10.6328V13.3203H1.96094V9.5625C1.96323 7.6466 2.72534 5.80983 4.08008 4.45508C5.43483 3.10034 7.2716 2.33823 9.1875 2.33594ZM13.8125 30.6641H9.1875C7.2716 30.6618 5.43483 29.8997 4.08008 28.5449C2.72534 27.1902 1.96323 25.3534 1.96094 23.4375V15.0547H21.0391V23.4375C21.0368 25.3534 20.2747 27.1902 18.9199 28.5449C17.5652 29.8997 15.7284 30.6618 13.8125 30.6641Z" fill="#F9F9F9"/>
</svg>
