<svg width="122" height="122" viewBox="0 0 122 122" fill="none" xmlns="http://www.w3.org/2000/svg">
<circle cx="61" cy="61" r="60" stroke="#F9F9F9" stroke-width="2"/>
<path fill-rule="evenodd" clip-rule="evenodd" d="M49.8878 63.9508C49.9612 63.9752 50.0367 63.993 50.1133 64.0037C50.5967 65.1426 51.0773 66.2826 51.5552 67.4238C52.4145 69.4772 53.2806 71.5921 53.4702 72.2003C53.7077 72.9486 53.9571 73.4576 54.2304 73.8061C54.3722 73.9838 54.5345 74.141 54.7258 74.2606C54.8255 74.3229 54.9321 74.3734 55.0436 74.4109C55.5902 74.6159 56.0891 74.5305 56.4017 74.4263C56.5852 74.3637 56.7597 74.2775 56.921 74.17L56.9296 74.1666L61.7573 71.1565L67.335 75.4308C67.417 75.494 67.5059 75.5469 67.6015 75.5896C68.2712 75.8801 68.9204 75.9826 69.532 75.9006C70.1401 75.8151 70.6236 75.5606 70.984 75.2719C71.3979 74.9383 71.7279 74.5124 71.9475 74.0282L71.9629 73.9906L71.968 73.977L71.9715 73.9701V73.9667L71.9732 73.965C72.0029 73.8915 72.0257 73.8155 72.0415 73.7378L77.1323 48.0701C77.1484 47.9879 77.1564 47.9044 77.1562 47.8207C77.1562 47.069 76.8727 46.3532 76.2081 45.921C75.6375 45.5503 75.0037 45.5332 74.6023 45.564C74.1718 45.5981 73.772 45.7041 73.5038 45.7895C73.3537 45.8371 73.2055 45.8906 73.0597 45.9501L73.0409 45.9586L44.4878 57.1584L44.4844 57.1601C44.3878 57.1957 44.2926 57.235 44.1991 57.278C43.9727 57.3798 43.7555 57.501 43.5499 57.6402C43.1621 57.905 42.2687 58.6327 42.4207 59.8354C42.5403 60.7921 43.1963 61.3814 43.5977 61.665C43.8164 61.8205 44.0248 61.9315 44.1786 62.005C44.2469 62.0391 44.3938 62.0972 44.457 62.1246L44.4741 62.1297L49.8878 63.9508ZM74.0402 48.3161H74.0368C74.0221 48.3226 74.0073 48.3289 73.9924 48.3349L45.4052 59.5501C45.3905 59.556 45.3756 59.5617 45.3607 59.5672L45.3437 59.5723C45.2914 59.5928 45.2401 59.6156 45.1899 59.6406C45.2375 59.6679 45.2865 59.6924 45.3368 59.7141L50.7044 61.5215C50.8003 61.5538 50.8921 61.5974 50.9777 61.6514L68.7051 51.2732L68.7222 51.2647C68.7911 51.2228 68.8617 51.1841 68.934 51.1485C69.057 51.0853 69.2535 50.9931 69.4756 50.9247C69.6293 50.8769 70.0855 50.7419 70.5775 50.9008C70.8384 50.9831 71.071 51.1371 71.2486 51.3452C71.4262 51.5533 71.5417 51.8072 71.582 52.0779C71.6456 52.3149 71.6473 52.5643 71.5871 52.8022C71.4675 53.272 71.1395 53.6376 70.8388 53.9177C70.5826 54.1569 67.2599 57.3617 63.9816 60.5256L59.5177 64.8306L58.7233 65.5993L68.7547 73.2902C68.89 73.3471 69.0371 73.3705 69.1835 73.3586C69.2572 73.3486 69.3265 73.3177 69.3833 73.2697C69.4526 73.2113 69.512 73.142 69.5593 73.0647L69.5627 73.063L74.4998 48.1675C74.3443 48.2049 74.1918 48.254 74.0437 48.3144L74.0402 48.3161ZM59.586 69.4892L57.5839 67.9551L57.0987 71.0386L59.586 69.4892ZM55.7474 64.9109L57.7376 62.989L62.2015 58.6806L63.8637 57.0781L52.7254 63.5989L52.7852 63.7389C53.4876 65.3985 54.1824 67.0613 54.8693 68.7273L55.3528 65.6523C55.3965 65.3671 55.5356 65.1068 55.7474 64.9109Z" fill="#F9F9F9"/>
</svg>
