<svg width="24" height="25" viewBox="0 0 24 25" fill="none" xmlns="http://www.w3.org/2000/svg">
<path d="M11.9996 0.75C13.4702 0.74955 14.9023 1.21996 16.0856 2.09219C17.2689 2.96441 18.1412 4.19252 18.5742 5.59625C19.0073 6.99998 18.9785 8.5054 18.492 9.89155C18.0055 11.2777 17.0868 12.4716 15.871 13.298C17.9814 14.0711 19.8118 15.4573 21.1266 17.2782C22.4414 19.0992 23.1805 21.2714 23.2487 23.5155C23.2551 23.64 23.2365 23.7646 23.1941 23.8819C23.1516 23.9992 23.0861 24.1068 23.0014 24.1985C22.9167 24.2902 22.8146 24.364 22.7009 24.4157C22.5873 24.4674 22.4645 24.4959 22.3396 24.4996C22.2148 24.5033 22.0905 24.482 21.974 24.437C21.8576 24.3921 21.7512 24.3243 21.6613 24.2378C21.5714 24.1512 21.4997 24.0476 21.4504 23.933C21.4011 23.8184 21.3752 23.6951 21.3743 23.5704C21.2998 21.1368 20.2796 18.8278 18.5297 17.1327C16.7799 15.4376 14.4379 14.4896 12.0002 14.4896C9.56247 14.4896 7.22054 15.4376 5.47068 17.1327C3.72082 18.8278 2.70055 21.1368 2.62609 23.5704C2.61863 23.8189 2.51266 24.0541 2.3315 24.2245C2.15035 24.3949 1.90884 24.4865 1.6601 24.479C1.41137 24.4716 1.17579 24.3657 1.00519 24.1848C0.834582 24.0039 0.74293 23.7627 0.750392 23.5142C0.818852 21.2704 1.55806 19.0984 2.87288 17.2777C4.1877 15.457 6.01797 14.071 8.12813 13.298C6.91229 12.4716 5.99369 11.2777 5.50716 9.89155C5.02063 8.5054 4.9918 6.99998 5.42489 5.59625C5.85798 4.19252 6.73019 2.96441 7.9135 2.09219C9.09681 1.21996 10.5289 0.74955 11.9996 0.75ZM6.99771 7.61911C6.99771 8.94406 7.52469 10.2147 8.46272 11.1516C9.40075 12.0885 10.673 12.6148 11.9996 12.6148C13.3261 12.6148 14.5984 12.0885 15.5364 11.1516C16.4744 10.2147 17.0014 8.94406 17.0014 7.61911C17.0014 6.29416 16.4744 5.02348 15.5364 4.0866C14.5984 3.14973 13.3261 2.62339 11.9996 2.62339C10.673 2.62339 9.40075 3.14973 8.46272 4.0866C7.52469 5.02348 6.99771 6.29416 6.99771 7.61911Z" fill="#282828"/>
</svg>
