<svg width="34" height="20" viewBox="0 0 34 20" fill="none" xmlns="http://www.w3.org/2000/svg">
<path d="M2 19.0898C1.63281 19.0898 1.32031 18.957 1.0625 18.6914C0.804688 18.4336 0.675781 18.1211 0.675781 17.7539C0.675781 17.3867 0.804688 17.0742 1.0625 16.8164C1.32031 16.5508 1.63281 16.418 2 16.418H22.0391C22.0391 16.5508 22.0391 16.6836 22.0391 16.8164C22.0469 16.9492 22.0508 17.082 22.0508 17.2148C22.0664 17.918 22.2461 18.543 22.5898 19.0898H2ZM4.56641 17.2852V2.50781C4.56641 1.6875 4.78906 1.07031 5.23438 0.65625C5.6875 0.234375 6.30078 0.0234375 7.07422 0.0234375H28.3203C28.9688 0.0234375 29.4766 0.183594 29.8438 0.503906C30.2109 0.816406 30.418 1.28516 30.4648 1.91016H7.57812C7.20312 1.91016 6.92188 2.00391 6.73438 2.19141C6.54688 2.37891 6.45312 2.66016 6.45312 3.03516V17.2852H4.56641ZM25.6836 19.2422C24.957 19.2422 24.3945 19.0508 23.9961 18.668C23.5977 18.2852 23.3984 17.7461 23.3984 17.0508V5.37891C23.3984 4.68359 23.5977 4.14453 23.9961 3.76172C24.3945 3.37109 24.957 3.17578 25.6836 3.17578H31.0273C31.7461 3.17578 32.3047 3.37109 32.7031 3.76172C33.1094 4.14453 33.3125 4.68359 33.3125 5.37891V17.0508C33.3125 17.7461 33.1133 18.2852 32.7148 18.668C32.3164 19.0508 31.7539 19.2422 31.0273 19.2422H25.6836ZM25.707 17.707H30.9922C31.25 17.707 31.4453 17.6406 31.5781 17.5078C31.7109 17.3672 31.7773 17.1641 31.7773 16.8984V5.53125C31.7773 5.26562 31.7109 5.0625 31.5781 4.92188C31.4453 4.78125 31.25 4.71094 30.9922 4.71094H25.707C25.4492 4.71094 25.2539 4.78125 25.1211 4.92188C24.9961 5.0625 24.9336 5.26562 24.9336 5.53125V16.8984C24.9336 17.1641 24.9961 17.3672 25.1211 17.5078C25.2539 17.6406 25.4492 17.707 25.707 17.707ZM26.75 17.1094C26.4922 17.1094 26.3633 16.9727 26.3633 16.6992C26.3633 16.582 26.3984 16.4883 26.4688 16.418C26.5391 16.3398 26.6328 16.3008 26.75 16.3008H29.9375C30.0547 16.3008 30.1523 16.3398 30.2305 16.418C30.3086 16.4883 30.3477 16.582 30.3477 16.6992C30.3477 16.9727 30.2109 17.1094 29.9375 17.1094H26.75ZM27.418 6.38672C27.2617 6.38672 27.1328 6.33594 27.0312 6.23438C26.9297 6.125 26.8789 5.99219 26.8789 5.83594C26.8789 5.6875 26.9297 5.5625 27.0312 5.46094C27.1328 5.35938 27.2617 5.30859 27.418 5.30859H29.2578C29.4062 5.30859 29.5312 5.35938 29.6328 5.46094C29.7422 5.5625 29.7969 5.6875 29.7969 5.83594C29.7969 5.99219 29.7422 6.125 29.6328 6.23438C29.5312 6.33594 29.4062 6.38672 29.2578 6.38672H27.418Z" fill="#282828"/>
</svg>
