<svg width="143" height="26" viewBox="0 0 143 26" fill="none" xmlns="http://www.w3.org/2000/svg">
<path d="M13.5 0L16.5309 8.98278H26.3393L18.4042 14.5344L21.4351 23.5172L13.5 17.9656L5.5649 23.5172L8.59584 14.5344L0.660737 8.98278H10.4691L13.5 0Z" fill="#FFB648"/>
<path d="M42.5 0L45.5309 8.98278H55.3393L47.4042 14.5344L50.4351 23.5172L42.5 17.9656L34.5649 23.5172L37.5958 14.5344L29.6607 8.98278H39.4691L42.5 0Z" fill="#FFB648"/>
<path d="M71.5 0L74.5309 8.98278H84.3393L76.4042 14.5344L79.4351 23.5172L71.5 17.9656L63.5649 23.5172L66.5958 14.5344L58.6607 8.98278H68.4691L71.5 0Z" fill="#FFB648"/>
<path d="M100.5 0L103.531 8.98278H113.339L105.404 14.5344L108.435 23.5172L100.5 17.9656L92.5649 23.5172L95.5958 14.5344L87.6607 8.98278H97.4691L100.5 0Z" fill="#FFB648"/>
<path d="M129.5 0L132.531 8.98278H142.339L134.404 14.5344L137.435 23.5172L129.5 17.9656L121.565 23.5172L124.596 14.5344L116.661 8.98278H126.469L129.5 0Z" fill="#FFB648"/>
</svg>
