<svg width="143" height="26" viewBox="0 0 143 26" fill="none" xmlns="http://www.w3.org/2000/svg">
<path d="M13.5 0L16.5309 8.98278H26.3393L18.4042 14.5344L21.4351 23.5172L13.5 17.9656L5.5649 23.5172L8.59584 14.5344L0.660737 8.98278H10.4691L13.5 0Z" fill="#FFB648"/>
<path d="M42.5 0L45.5309 8.98278H55.3393L47.4042 14.5344L50.4351 23.5172L42.5 17.9656L34.5649 23.5172L37.5958 14.5344L29.6607 8.98278H39.4691L42.5 0Z" fill="#FFB648"/>
<path d="M71.5 0L74.5309 8.98278H84.3393L76.4042 14.5344L79.4351 23.5172L71.5 17.9656L63.5649 23.5172L66.5958 14.5344L58.6607 8.98278H68.4691L71.5 0Z" fill="#FFB648"/>
<path d="M100.5 0L103.531 8.98278H113.339L105.404 14.5344L108.435 23.5172L100.5 17.9656L92.5649 23.5172L95.5958 14.5344L87.6607 8.98278H97.4691L100.5 0Z" fill="#FFB648"/>
<path d="M129.5 1.56393L132.057 9.14263L132.172 9.48278H132.531H140.752L134.118 14.1248L133.811 14.3394L133.93 14.6943L136.475 22.2351L129.787 17.5559L129.5 17.3553L129.213 17.5559L122.525 22.2351L125.07 14.6943L125.189 14.3394L124.882 14.1248L118.248 9.48278H126.469H126.828L126.943 9.14263L129.5 1.56393Z" stroke="#FFB648"/>
</svg>
