<svg width="41" height="41" viewBox="0 0 41 41" fill="none" xmlns="http://www.w3.org/2000/svg">
<path d="M20.5 0.0833435C9.22998 0.0833435 0.083313 9.23001 0.083313 20.5C0.083313 31.77 9.22998 40.9167 20.5 40.9167C31.77 40.9167 40.9166 31.77 40.9166 20.5C40.9166 9.23001 31.77 0.0833435 20.5 0.0833435ZM29.9733 13.9667C29.6671 17.1925 28.34 25.0325 27.6662 28.6463C27.3804 30.1775 26.8087 30.6879 26.2779 30.7492C25.0937 30.8513 24.1954 29.9733 23.0521 29.2179C21.2554 28.0338 20.2346 27.2988 18.4991 26.1554C16.4779 24.8283 17.7846 24.0933 18.9483 22.9092C19.2546 22.6029 24.4812 17.8458 24.5833 17.4171C24.5975 17.3522 24.5956 17.2847 24.5778 17.2207C24.56 17.1566 24.5269 17.0979 24.4812 17.0496C24.3587 16.9475 24.1954 16.9883 24.0525 17.0088C23.8687 17.0496 21.0104 18.9483 15.4366 22.705C14.62 23.2563 13.885 23.5421 13.2316 23.5217C12.4966 23.5013 11.1083 23.1133 10.0671 22.7663C8.78081 22.3579 7.7804 22.1333 7.86206 21.4188C7.9029 21.0513 8.41331 20.6838 9.3729 20.2958C15.3346 17.7029 19.2954 15.9879 21.2758 15.1713C26.9516 12.8029 28.1154 12.3946 28.8912 12.3946C29.0546 12.3946 29.4425 12.4354 29.6875 12.6396C29.8916 12.8029 29.9529 13.0275 29.9733 13.1908C29.9529 13.3133 29.9937 13.6808 29.9733 13.9667Z" fill="#F9F9F9"/>
</svg>
