<svg version="1.1" xmlns="http://www.w3.org/2000/svg" xmlns:xlink="http://www.w3.org/1999/xlink" width="122" height="122" viewBox="0,0,256,256"><defs><clipPath id="clip-1"><rect x="41" y="41" width="39" height="39" id="clip0_257_660" fill="none"></rect></clipPath></defs><g fill="none" fill-rule="nonzero" stroke="none" stroke-width="none" stroke-linecap="butt" stroke-linejoin="miter" stroke-miterlimit="10" stroke-dasharray="" stroke-dashoffset="0" font-family="none" font-weight="none" font-size="none" text-anchor="none" style="mix-blend-mode: normal"><g transform="scale(2.09836,2.09836)"><g clip-path="url(#clip-1)" stroke="none" stroke-width="1"><path d="M60.5,44.5115c5.2102,0 5.8272,0.0229 7.8762,0.1143c1.9043,0.0838 2.9326,0.4037 3.6181,0.6703c0.9065,0.3504 1.5616,0.7769 2.2395,1.4549c0.6855,0.6855 1.1045,1.333 1.4549,2.2394c0.2666,0.6856 0.5865,1.7215 0.6703,3.6182c0.0914,2.0566 0.1142,2.6736 0.1142,7.8762c0,5.2101 -0.0228,5.8271 -0.1142,7.8761c-0.0838,1.9043 -0.4037,2.9327 -0.6703,3.6182c-0.3504,0.9064 -0.777,1.5615 -1.4549,2.2395c-0.6856,0.6855 -1.333,1.1044 -2.2395,1.4548c-0.6855,0.2666 -1.7214,0.5866 -3.6181,0.6703c-2.0567,0.0915 -2.6737,0.1143 -7.8762,0.1143c-5.2102,0 -5.8271,-0.0228 -7.8762,-0.1143c-1.9043,-0.0837 -2.9326,-0.4037 -3.6181,-0.6703c-0.9065,-0.3504 -1.5616,-0.7769 -2.2395,-1.4548c-0.6855,-0.6856 -1.1045,-1.3331 -1.4549,-2.2395c-0.2666,-0.6855 -0.5865,-1.7215 -0.6703,-3.6182c-0.0914,-2.0566 -0.1142,-2.6736 -0.1142,-7.8761c0,-5.2102 0.0228,-5.8272 0.1142,-7.8762c0.0838,-1.9043 0.4037,-2.9326 0.6703,-3.6182c0.3504,-0.9064 0.777,-1.5615 1.4549,-2.2394c0.6856,-0.6856 1.333,-1.1045 2.2395,-1.4549c0.6855,-0.2666 1.7214,-0.5865 3.6181,-0.6703c2.0491,-0.0914 2.666,-0.1143 7.8762,-0.1143zM60.5,41c-5.2939,0 -5.9566,0.0229 -8.0361,0.1143c-2.0719,0.0914 -3.4963,0.4265 -4.7303,0.9064c-1.2873,0.5027 -2.3766,1.1654 -3.4582,2.2547c-1.0893,1.0816 -1.752,2.1709 -2.2547,3.4506c-0.4799,1.2416 -0.815,2.6584 -0.9064,4.7302c-0.0914,2.0872 -0.1143,2.7499 -0.1143,8.0438c0,5.2939 0.0229,5.9566 0.1143,8.0361c0.0914,2.0719 0.4265,3.4963 0.9064,4.7303c0.5027,1.2873 1.1654,2.3766 2.2547,3.4582c1.0816,1.0816 2.1709,1.752 3.4506,2.2471c1.2416,0.4799 2.6584,0.815 4.7303,0.9064c2.0794,0.0914 2.7421,0.1143 8.0361,0.1143c5.2939,0 5.9566,-0.0229 8.0361,-0.1143c2.0719,-0.0914 3.4963,-0.4265 4.7303,-0.9064c1.2797,-0.4951 2.3689,-1.1655 3.4506,-2.2471c1.0816,-1.0816 1.7519,-2.1709 2.247,-3.4506c0.4799,-1.2416 0.8151,-2.6584 0.9065,-4.7303c0.0914,-2.0794 0.1142,-2.7421 0.1142,-8.0361c0,-5.2939 -0.0228,-5.9566 -0.1142,-8.0361c-0.0914,-2.0719 -0.4266,-3.4963 -0.9065,-4.7303c-0.4798,-1.2949 -1.1425,-2.3842 -2.2318,-3.4658c-1.0816,-1.0817 -2.1709,-1.752 -3.4506,-2.2471c-1.2416,-0.4799 -2.6584,-0.815 -4.7302,-0.9064c-2.0872,-0.099 -2.7499,-0.1219 -8.0438,-0.1219z" fill="#282828"></path><path d="M60.5003,50.4839c-5.53,0 -10.0166,4.4865 -10.0166,10.0166c0,5.5301 4.4866,10.0166 10.0166,10.0166c5.5301,0 10.0166,-4.4865 10.0166,-10.0166c0,-5.5301 -4.4865,-10.0166 -10.0166,-10.0166zM60.5003,66.9979c-3.5877,0 -6.4974,-2.9097 -6.4974,-6.4974c0,-3.5877 2.9097,-6.4975 6.4974,-6.4975c3.5877,0 6.4975,2.9098 6.4975,6.4975c0,3.5877 -2.9098,6.4974 -6.4975,6.4974z" fill="#282828"></path><path d="M73.2512,50.087c0,1.2949 -1.0512,2.3385 -2.3385,2.3385c-1.2949,0 -2.3385,-1.0512 -2.3385,-2.3385c0,-1.2949 1.0512,-2.3385 2.3385,-2.3385c1.2873,0 2.3385,1.0512 2.3385,2.3385z" fill="#282828"></path></g><circle cx="61" cy="61" r="60" fill="none" stroke="#282828" stroke-width="2"></circle></g></g></svg>