<svg version="1.1" xmlns="http://www.w3.org/2000/svg" xmlns:xlink="http://www.w3.org/1999/xlink" width="122" height="122" viewBox="0,0,256,256"><g fill="none" fill-rule="none" stroke="none" stroke-width="none" stroke-linecap="butt" stroke-linejoin="miter" stroke-miterlimit="10" stroke-dasharray="" stroke-dashoffset="0" font-family="none" font-weight="none" font-size="none" text-anchor="none" style="mix-blend-mode: normal"><g transform="scale(2.09836,2.09836)"><circle cx="61" cy="61" r="60" fill="none" fill-rule="nonzero" stroke="#282828" stroke-width="2"></circle><path d="M49.8878,63.9508c0.0734,0.0244 0.1489,0.0422 0.2255,0.0529c0.4834,1.1389 0.964,2.2789 1.4419,3.4201c0.8593,2.0534 1.7254,4.1683 1.915,4.7765c0.2375,0.7483 0.4869,1.2573 0.7602,1.6058c0.1418,0.1777 0.3041,0.3349 0.4954,0.4545c0.0997,0.0623 0.2063,0.1128 0.3178,0.1503c0.5466,0.205 1.0455,0.1196 1.3581,0.0154c0.1835,-0.0626 0.358,-0.1488 0.5193,-0.2563l0.0086,-0.0034l4.8277,-3.0101l5.5777,4.2743c0.082,0.0632 0.1709,0.1161 0.2665,0.1588c0.6697,0.2905 1.3189,0.393 1.9305,0.311c0.6081,-0.0855 1.0916,-0.34 1.452,-0.6287c0.4139,-0.3336 0.7439,-0.7595 0.9635,-1.2437l0.0154,-0.0376l0.0051,-0.0136l0.0035,-0.0069v-0.0034l0.0017,-0.0017c0.0297,-0.0735 0.0525,-0.1495 0.0683,-0.2272l5.0908,-25.6677c0.0161,-0.0822 0.0241,-0.1657 0.0239,-0.2494c0,-0.7517 -0.2835,-1.4675 -0.9481,-1.8997c-0.5706,-0.3707 -1.2044,-0.3878 -1.6058,-0.357c-0.4305,0.0341 -0.8303,0.1401 -1.0985,0.2255c-0.1501,0.0476 -0.2983,0.1011 -0.4441,0.1606l-0.0188,0.0085l-28.5531,11.1998l-0.0034,0.0017c-0.0966,0.0356 -0.1918,0.0749 -0.2853,0.1179c-0.2264,0.1018 -0.4436,0.223 -0.6492,0.3622c-0.3878,0.2648 -1.2812,0.9925 -1.1292,2.1952c0.1196,0.9567 0.7756,1.546 1.177,1.8296c0.2187,0.1555 0.4271,0.2665 0.5809,0.34c0.0683,0.0341 0.2152,0.0922 0.2784,0.1196l0.0171,0.0051zM74.0402,48.3161h-0.0034c-0.0147,0.0065 -0.0295,0.0128 -0.0444,0.0188l-28.5872,11.2152c-0.0147,0.0059 -0.0296,0.0116 -0.0445,0.0171l-0.017,0.0051c-0.0523,0.0205 -0.1036,0.0433 -0.1538,0.0683c0.0476,0.0273 0.0966,0.0518 0.1469,0.0735l5.3676,1.8074c0.0959,0.0323 0.1877,0.0759 0.2733,0.1299l17.7274,-10.3782l0.0171,-0.0085c0.0689,-0.0419 0.1395,-0.0806 0.2118,-0.1162c0.123,-0.0632 0.3195,-0.1554 0.5416,-0.2238c0.1537,-0.0478 0.6099,-0.1828 1.1019,-0.0239c0.2609,0.0823 0.4935,0.2363 0.6711,0.4444c0.1776,0.2081 0.2931,0.462 0.3334,0.7327c0.0636,0.237 0.0653,0.4864 0.0051,0.7243c-0.1196,0.4698 -0.4476,0.8354 -0.7483,1.1155c-0.2562,0.2392 -3.5789,3.444 -6.8572,6.6079l-4.4639,4.305l-0.7944,0.7687l10.0314,7.6909c0.1353,0.0569 0.2824,0.0803 0.4288,0.0684c0.0737,-0.01 0.143,-0.0409 0.1998,-0.0889c0.0693,-0.0584 0.1287,-0.1277 0.176,-0.205l0.0034,-0.0017l4.9371,-24.8955c-0.1555,0.0374 -0.308,0.0865 -0.4561,0.1469zM59.586,69.4892l-2.0021,-1.5341l-0.4852,3.0835zM55.7474,64.9109l1.9902,-1.9219l4.4639,-4.3084l1.6622,-1.6025l-11.1383,6.5208l0.0598,0.14c0.7024,1.6596 1.3972,3.3224 2.0841,4.9884l0.4835,-3.075c0.0437,-0.2852 0.1828,-0.5455 0.3946,-0.7414z" fill="#282828" fill-rule="evenodd" stroke="none" stroke-width="1"></path></g></g></svg>